<mxfile host="65bd71144e">
    <diagram id="0W9PW05vVtJZ4PPajJrG" name="Page-1">
        <mxGraphModel dx="2020" dy="2909" grid="0" gridSize="10" guides="1" tooltips="1" connect="1" arrows="1" fold="1" page="0" pageScale="1" pageWidth="827" pageHeight="1169" math="0" shadow="0">
            <root>
                <mxCell id="0"/>
                <mxCell id="1" parent="0"/>
                <mxCell id="w9yGPqB2lC9YXLwlPhrW-45" value="VPC" style="rounded=1;arcSize=10;dashed=0;fillColor=none;gradientColor=none;strokeWidth=2;labelPosition=center;verticalLabelPosition=top;align=center;verticalAlign=bottom;" parent="1" vertex="1">
                    <mxGeometry x="693" y="-468.5" width="428" height="345" as="geometry"/>
                </mxCell>
                <mxCell id="2" value="Subnet" style="rounded=1;arcSize=10;strokeColor=none;fillColor=#DBDBDB;gradientColor=none;labelPosition=center;verticalLabelPosition=top;align=center;verticalAlign=bottom;" vertex="1" parent="1">
                    <mxGeometry x="806" y="-378.5" width="265" height="162" as="geometry"/>
                </mxCell>
                <mxCell id="w9yGPqB2lC9YXLwlPhrW-11" value="AWS Private Link" style="rounded=1;arcSize=10;dashed=1;strokeColor=#ff0000;fillColor=none;gradientColor=none;dashPattern=8 4;strokeWidth=2;labelPosition=center;verticalLabelPosition=bottom;align=center;verticalAlign=top;" parent="1" vertex="1">
                    <mxGeometry x="-35" y="303" width="496" height="155" as="geometry"/>
                </mxCell>
                <mxCell id="w9yGPqB2lC9YXLwlPhrW-2" value="Service VPC" style="rounded=1;arcSize=10;dashed=0;fillColor=none;gradientColor=none;strokeWidth=2;labelPosition=center;verticalLabelPosition=top;align=center;verticalAlign=bottom;" parent="1" vertex="1">
                    <mxGeometry x="-46" y="167" width="200" height="300" as="geometry"/>
                </mxCell>
                <mxCell id="w9yGPqB2lC9YXLwlPhrW-4" value="Customer VPC" style="rounded=1;arcSize=10;dashed=0;fillColor=none;gradientColor=none;strokeWidth=2;labelPosition=center;verticalLabelPosition=top;align=center;verticalAlign=bottom;" parent="1" vertex="1">
                    <mxGeometry x="272" y="167" width="200" height="300" as="geometry"/>
                </mxCell>
                <mxCell id="w9yGPqB2lC9YXLwlPhrW-15" style="edgeStyle=orthogonalEdgeStyle;rounded=0;orthogonalLoop=1;jettySize=auto;html=1;startArrow=classic;startFill=1;endArrow=classic;endFill=1;" parent="1" source="w9yGPqB2lC9YXLwlPhrW-5" target="w9yGPqB2lC9YXLwlPhrW-7" edge="1">
                    <mxGeometry relative="1" as="geometry"/>
                </mxCell>
                <mxCell id="w9yGPqB2lC9YXLwlPhrW-5" value="APP" style="verticalLabelPosition=top;sketch=0;aspect=fixed;html=1;verticalAlign=bottom;strokeColor=none;align=center;outlineConnect=0;shape=mxgraph.citrix.process;labelPosition=center;" parent="1" vertex="1">
                    <mxGeometry x="28" y="199" width="52" height="62" as="geometry"/>
                </mxCell>
                <mxCell id="w9yGPqB2lC9YXLwlPhrW-13" style="edgeStyle=orthogonalEdgeStyle;rounded=0;orthogonalLoop=1;jettySize=auto;html=1;startArrow=classic;startFill=1;endArrow=classic;endFill=1;" parent="1" source="w9yGPqB2lC9YXLwlPhrW-6" target="w9yGPqB2lC9YXLwlPhrW-8" edge="1">
                    <mxGeometry relative="1" as="geometry"/>
                </mxCell>
                <mxCell id="w9yGPqB2lC9YXLwlPhrW-6" value="APP" style="verticalLabelPosition=top;sketch=0;aspect=fixed;html=1;verticalAlign=bottom;strokeColor=none;align=center;outlineConnect=0;shape=mxgraph.citrix.process;labelPosition=center;" parent="1" vertex="1">
                    <mxGeometry x="346" y="199" width="52" height="62" as="geometry"/>
                </mxCell>
                <mxCell id="w9yGPqB2lC9YXLwlPhrW-9" style="edgeStyle=orthogonalEdgeStyle;rounded=0;orthogonalLoop=1;jettySize=auto;html=1;startArrow=classic;startFill=1;endArrow=classic;endFill=1;" parent="1" source="w9yGPqB2lC9YXLwlPhrW-7" target="w9yGPqB2lC9YXLwlPhrW-8" edge="1">
                    <mxGeometry relative="1" as="geometry"/>
                </mxCell>
                <mxCell id="w9yGPqB2lC9YXLwlPhrW-10" value="private" style="edgeLabel;html=1;align=center;verticalAlign=middle;resizable=0;points=[];" parent="w9yGPqB2lC9YXLwlPhrW-9" vertex="1" connectable="0">
                    <mxGeometry x="-0.1765" y="-1" relative="1" as="geometry">
                        <mxPoint x="12" y="9" as="offset"/>
                    </mxGeometry>
                </mxCell>
                <mxCell id="w9yGPqB2lC9YXLwlPhrW-7" value="Network Load Balancer&lt;br&gt;NLB" style="sketch=0;outlineConnect=0;fontColor=#232F3E;gradientColor=none;fillColor=#4D27AA;strokeColor=none;dashed=0;verticalLabelPosition=bottom;verticalAlign=top;align=center;html=1;fontSize=12;fontStyle=0;aspect=fixed;pointerEvents=1;shape=mxgraph.aws4.network_load_balancer;" parent="1" vertex="1">
                    <mxGeometry x="15" y="334" width="78" height="78" as="geometry"/>
                </mxCell>
                <mxCell id="w9yGPqB2lC9YXLwlPhrW-8" value="Elastic Network Interface&lt;br&gt;ENI" style="sketch=0;outlineConnect=0;fontColor=#232F3E;gradientColor=none;fillColor=#4D27AA;strokeColor=none;dashed=0;verticalLabelPosition=bottom;verticalAlign=top;align=center;html=1;fontSize=12;fontStyle=0;aspect=fixed;pointerEvents=1;shape=mxgraph.aws4.elastic_network_interface;" parent="1" vertex="1">
                    <mxGeometry x="333" y="334" width="78" height="78" as="geometry"/>
                </mxCell>
                <mxCell id="w9yGPqB2lC9YXLwlPhrW-18" value="VPC" style="rounded=1;arcSize=10;dashed=0;fillColor=none;gradientColor=none;strokeWidth=2;labelPosition=center;verticalLabelPosition=top;align=center;verticalAlign=bottom;" parent="1" vertex="1">
                    <mxGeometry x="81" y="-478" width="396" height="364" as="geometry"/>
                </mxCell>
                <mxCell id="w9yGPqB2lC9YXLwlPhrW-37" value="" style="edgeStyle=orthogonalEdgeStyle;rounded=0;orthogonalLoop=1;jettySize=auto;html=1;startArrow=classic;startFill=1;endArrow=none;endFill=0;" parent="1" source="w9yGPqB2lC9YXLwlPhrW-34" target="w9yGPqB2lC9YXLwlPhrW-36" edge="1">
                    <mxGeometry relative="1" as="geometry"/>
                </mxCell>
                <mxCell id="10" style="edgeStyle=none;html=1;entryX=1;entryY=0.5;entryDx=0;entryDy=0;startArrow=none;startFill=0;endArrow=classic;endFill=1;" edge="1" parent="1" source="w9yGPqB2lC9YXLwlPhrW-34" target="7">
                    <mxGeometry relative="1" as="geometry"/>
                </mxCell>
                <mxCell id="11" style="edgeStyle=none;html=1;entryX=1;entryY=0.5;entryDx=0;entryDy=0;startArrow=none;startFill=0;endArrow=classic;endFill=1;" edge="1" parent="1" source="w9yGPqB2lC9YXLwlPhrW-34" target="8">
                    <mxGeometry relative="1" as="geometry"/>
                </mxCell>
                <mxCell id="12" style="edgeStyle=none;html=1;entryX=1;entryY=0.5;entryDx=0;entryDy=0;startArrow=none;startFill=0;endArrow=classic;endFill=1;" edge="1" parent="1" source="w9yGPqB2lC9YXLwlPhrW-34" target="9">
                    <mxGeometry relative="1" as="geometry"/>
                </mxCell>
                <mxCell id="w9yGPqB2lC9YXLwlPhrW-34" value="NLB" style="sketch=0;outlineConnect=0;fontColor=#232F3E;gradientColor=none;fillColor=#4D27AA;strokeColor=none;dashed=0;verticalLabelPosition=bottom;verticalAlign=top;align=center;html=1;fontSize=12;fontStyle=0;aspect=fixed;pointerEvents=1;shape=mxgraph.aws4.network_load_balancer;" parent="1" vertex="1">
                    <mxGeometry x="317" y="-339" width="78" height="78" as="geometry"/>
                </mxCell>
                <mxCell id="w9yGPqB2lC9YXLwlPhrW-49" style="edgeStyle=orthogonalEdgeStyle;rounded=0;orthogonalLoop=1;jettySize=auto;html=1;startArrow=none;startFill=0;endArrow=none;endFill=0;exitX=1;exitY=0.5;exitDx=0;exitDy=0;exitPerimeter=0;" parent="1" source="w9yGPqB2lC9YXLwlPhrW-36" target="w9yGPqB2lC9YXLwlPhrW-48" edge="1">
                    <mxGeometry relative="1" as="geometry"/>
                </mxCell>
                <mxCell id="w9yGPqB2lC9YXLwlPhrW-36" value="AWS PrivateLink" style="sketch=0;points=[[0,0,0],[0.25,0,0],[0.5,0,0],[0.75,0,0],[1,0,0],[0,1,0],[0.25,1,0],[0.5,1,0],[0.75,1,0],[1,1,0],[0,0.25,0],[0,0.5,0],[0,0.75,0],[1,0.25,0],[1,0.5,0],[1,0.75,0]];outlineConnect=0;fontColor=#232F3E;gradientColor=#945DF2;gradientDirection=north;fillColor=#5A30B5;strokeColor=#ffffff;dashed=0;verticalLabelPosition=bottom;verticalAlign=top;align=center;html=1;fontSize=12;fontStyle=0;aspect=fixed;shape=mxgraph.aws4.resourceIcon;resIcon=mxgraph.aws4.vpc_privatelink;labelPosition=center;" parent="1" vertex="1">
                    <mxGeometry x="549" y="-339" width="78" height="78" as="geometry"/>
                </mxCell>
                <mxCell id="w9yGPqB2lC9YXLwlPhrW-48" value="ENI" style="sketch=0;outlineConnect=0;fontColor=#232F3E;gradientColor=none;fillColor=#4D27AA;strokeColor=none;dashed=0;verticalLabelPosition=bottom;verticalAlign=top;align=center;html=1;fontSize=12;fontStyle=0;aspect=fixed;pointerEvents=1;shape=mxgraph.aws4.elastic_network_interface;" parent="1" vertex="1">
                    <mxGeometry x="834" y="-339.5" width="78" height="78" as="geometry"/>
                </mxCell>
                <mxCell id="6" value="" style="edgeStyle=none;html=1;" edge="1" parent="1" source="3" target="w9yGPqB2lC9YXLwlPhrW-48">
                    <mxGeometry relative="1" as="geometry"/>
                </mxCell>
                <mxCell id="3" value="Instance" style="rounded=1;arcSize=10;strokeColor=#F59D56;fillColor=#F59D56;gradientColor=none;strokeWidth=2;" vertex="1" parent="1">
                    <mxGeometry x="968" y="-339.5" width="76" height="76" as="geometry"/>
                </mxCell>
                <mxCell id="7" value="Instance" style="rounded=1;arcSize=10;strokeColor=#F59D56;fillColor=#F59D56;gradientColor=none;strokeWidth=2;" vertex="1" parent="1">
                    <mxGeometry x="131" y="-443" width="76" height="76" as="geometry"/>
                </mxCell>
                <mxCell id="8" value="Instance" style="rounded=1;arcSize=10;strokeColor=#F59D56;fillColor=#F59D56;gradientColor=none;strokeWidth=2;" vertex="1" parent="1">
                    <mxGeometry x="131" y="-337" width="76" height="76" as="geometry"/>
                </mxCell>
                <mxCell id="9" value="Instance" style="rounded=1;arcSize=10;strokeColor=#F59D56;fillColor=#F59D56;gradientColor=none;strokeWidth=2;" vertex="1" parent="1">
                    <mxGeometry x="131" y="-233" width="76" height="76" as="geometry"/>
                </mxCell>
                <mxCell id="23" value="VPC" style="rounded=1;arcSize=10;dashed=0;fillColor=none;gradientColor=none;strokeWidth=2;labelPosition=center;verticalLabelPosition=top;align=center;verticalAlign=bottom;" vertex="1" parent="1">
                    <mxGeometry x="791" y="-1295" width="391" height="200" as="geometry"/>
                </mxCell>
                <mxCell id="24" value="Subnet" style="rounded=1;arcSize=10;strokeColor=none;fillColor=#DBDBDB;gradientColor=none;labelPosition=center;verticalLabelPosition=top;align=center;verticalAlign=bottom;" vertex="1" parent="1">
                    <mxGeometry x="901" y="-1273" width="265" height="162" as="geometry"/>
                </mxCell>
                <mxCell id="25" value="VPC" style="rounded=1;arcSize=10;dashed=0;fillColor=none;gradientColor=none;strokeWidth=2;labelPosition=center;verticalLabelPosition=top;align=center;verticalAlign=bottom;" vertex="1" parent="1">
                    <mxGeometry x="76" y="-1240" width="396" height="364" as="geometry"/>
                </mxCell>
                <mxCell id="26" value="" style="edgeStyle=orthogonalEdgeStyle;rounded=0;orthogonalLoop=1;jettySize=auto;html=1;startArrow=classic;startFill=1;endArrow=none;endFill=0;" edge="1" parent="1" source="30" target="32">
                    <mxGeometry relative="1" as="geometry"/>
                </mxCell>
                <mxCell id="27" style="edgeStyle=none;html=1;entryX=1;entryY=0.5;entryDx=0;entryDy=0;startArrow=none;startFill=0;endArrow=classic;endFill=1;" edge="1" parent="1" source="30" target="45">
                    <mxGeometry relative="1" as="geometry"/>
                </mxCell>
                <mxCell id="28" style="edgeStyle=none;html=1;entryX=1;entryY=0.5;entryDx=0;entryDy=0;startArrow=none;startFill=0;endArrow=classic;endFill=1;" edge="1" parent="1" source="30" target="46">
                    <mxGeometry relative="1" as="geometry"/>
                </mxCell>
                <mxCell id="29" style="edgeStyle=none;html=1;entryX=1;entryY=0.5;entryDx=0;entryDy=0;startArrow=none;startFill=0;endArrow=classic;endFill=1;" edge="1" parent="1" source="30" target="47">
                    <mxGeometry relative="1" as="geometry"/>
                </mxCell>
                <mxCell id="30" value="NLB" style="sketch=0;outlineConnect=0;fontColor=#232F3E;gradientColor=none;fillColor=#4D27AA;strokeColor=none;dashed=0;verticalLabelPosition=bottom;verticalAlign=top;align=center;html=1;fontSize=12;fontStyle=0;aspect=fixed;pointerEvents=1;shape=mxgraph.aws4.network_load_balancer;" vertex="1" parent="1">
                    <mxGeometry x="312" y="-1101" width="78" height="78" as="geometry"/>
                </mxCell>
                <mxCell id="31" style="edgeStyle=orthogonalEdgeStyle;rounded=0;orthogonalLoop=1;jettySize=auto;html=1;startArrow=none;startFill=0;endArrow=none;endFill=0;exitX=0.5;exitY=0;exitDx=0;exitDy=0;exitPerimeter=0;" edge="1" parent="1" source="32" target="42">
                    <mxGeometry relative="1" as="geometry">
                        <Array as="points">
                            <mxPoint x="612" y="-1194"/>
                        </Array>
                    </mxGeometry>
                </mxCell>
                <mxCell id="32" value="AWS PrivateLink" style="sketch=0;points=[[0,0,0],[0.25,0,0],[0.5,0,0],[0.75,0,0],[1,0,0],[0,1,0],[0.25,1,0],[0.5,1,0],[0.75,1,0],[1,1,0],[0,0.25,0],[0,0.5,0],[0,0.75,0],[1,0.25,0],[1,0.5,0],[1,0.75,0]];outlineConnect=0;fontColor=#232F3E;gradientColor=#945DF2;gradientDirection=north;fillColor=#5A30B5;strokeColor=#ffffff;dashed=0;verticalLabelPosition=middle;verticalAlign=middle;align=left;html=1;fontSize=12;fontStyle=0;aspect=fixed;shape=mxgraph.aws4.resourceIcon;resIcon=mxgraph.aws4.vpc_privatelink;labelPosition=right;" vertex="1" parent="1">
                    <mxGeometry x="573" y="-1101" width="78" height="78" as="geometry"/>
                </mxCell>
                <mxCell id="33" style="rounded=0;orthogonalLoop=1;jettySize=auto;html=1;startArrow=classic;startFill=1;endArrow=classic;endFill=1;" edge="1" parent="1" source="35" target="38">
                    <mxGeometry relative="1" as="geometry"/>
                </mxCell>
                <mxCell id="34" style="edgeStyle=orthogonalEdgeStyle;rounded=0;orthogonalLoop=1;jettySize=auto;html=1;startArrow=classic;startFill=1;endArrow=classic;endFill=1;" edge="1" parent="1" source="35" target="32">
                    <mxGeometry relative="1" as="geometry"/>
                </mxCell>
                <mxCell id="35" value="Virtual &lt;br&gt;Private &lt;br&gt;Gateway" style="sketch=0;outlineConnect=0;fontColor=#232F3E;gradientColor=none;fillColor=#4D27AA;strokeColor=none;dashed=0;verticalLabelPosition=bottom;verticalAlign=top;align=center;html=1;fontSize=12;fontStyle=0;aspect=fixed;pointerEvents=1;shape=mxgraph.aws4.vpn_gateway;" vertex="1" parent="1">
                    <mxGeometry x="431" y="-1017" width="78" height="78" as="geometry"/>
                </mxCell>
                <mxCell id="36" value="On-Premise DC" style="rounded=1;arcSize=10;strokeColor=none;fillColor=#DBDBDB;gradientColor=none;" vertex="1" parent="1">
                    <mxGeometry x="939" y="-1003" width="199.5" height="199.5" as="geometry"/>
                </mxCell>
                <mxCell id="37" value="" style="edgeStyle=orthogonalEdgeStyle;rounded=0;orthogonalLoop=1;jettySize=auto;html=1;startArrow=classic;startFill=1;endArrow=classic;endFill=1;" edge="1" parent="1" source="38" target="41">
                    <mxGeometry relative="1" as="geometry"/>
                </mxCell>
                <mxCell id="38" value="Direct Connect" style="sketch=0;points=[[0,0,0],[0.25,0,0],[0.5,0,0],[0.75,0,0],[1,0,0],[0,1,0],[0.25,1,0],[0.5,1,0],[0.75,1,0],[1,1,0],[0,0.25,0],[0,0.5,0],[0,0.75,0],[1,0.25,0],[1,0.5,0],[1,0.75,0]];outlineConnect=0;fontColor=#232F3E;gradientColor=#945DF2;gradientDirection=north;fillColor=#5A30B5;strokeColor=#ffffff;dashed=0;verticalLabelPosition=bottom;verticalAlign=top;align=center;html=1;fontSize=12;fontStyle=0;aspect=fixed;shape=mxgraph.aws4.resourceIcon;resIcon=mxgraph.aws4.direct_connect;" vertex="1" parent="1">
                    <mxGeometry x="691" y="-913" width="78" height="78" as="geometry"/>
                </mxCell>
                <mxCell id="39" style="rounded=0;orthogonalLoop=1;jettySize=auto;html=1;startArrow=classic;startFill=1;endArrow=classic;endFill=1;edgeStyle=orthogonalEdgeStyle;curved=1;" edge="1" parent="1" source="41" target="35">
                    <mxGeometry relative="1" as="geometry">
                        <Array as="points">
                            <mxPoint x="937" y="-975"/>
                        </Array>
                    </mxGeometry>
                </mxCell>
                <mxCell id="40" value="VPN Connection" style="edgeLabel;html=1;align=center;verticalAlign=middle;resizable=0;points=[];" vertex="1" connectable="0" parent="39">
                    <mxGeometry x="0.2563" relative="1" as="geometry">
                        <mxPoint as="offset"/>
                    </mxGeometry>
                </mxCell>
                <mxCell id="41" value="Customer&#10;gateway" style="sketch=0;outlineConnect=0;fontColor=#232F3E;gradientColor=none;strokeColor=#232F3E;fillColor=#ffffff;dashed=0;verticalLabelPosition=bottom;verticalAlign=top;align=center;html=1;fontSize=12;fontStyle=0;aspect=fixed;shape=mxgraph.aws4.resourceIcon;resIcon=mxgraph.aws4.customer_gateway;" vertex="1" parent="1">
                    <mxGeometry x="907" y="-904" width="60" height="60" as="geometry"/>
                </mxCell>
                <mxCell id="42" value="ENI" style="sketch=0;outlineConnect=0;fontColor=#232F3E;gradientColor=none;fillColor=#4D27AA;strokeColor=none;dashed=0;verticalLabelPosition=bottom;verticalAlign=top;align=center;html=1;fontSize=12;fontStyle=0;aspect=fixed;pointerEvents=1;shape=mxgraph.aws4.elastic_network_interface;" vertex="1" parent="1">
                    <mxGeometry x="929" y="-1234" width="78" height="78" as="geometry"/>
                </mxCell>
                <mxCell id="43" value="" style="edgeStyle=none;html=1;" edge="1" parent="1" source="44" target="42">
                    <mxGeometry relative="1" as="geometry"/>
                </mxCell>
                <mxCell id="44" value="Instance" style="rounded=1;arcSize=10;strokeColor=#F59D56;fillColor=#F59D56;gradientColor=none;strokeWidth=2;" vertex="1" parent="1">
                    <mxGeometry x="1063" y="-1234" width="76" height="76" as="geometry"/>
                </mxCell>
                <mxCell id="45" value="Instance" style="rounded=1;arcSize=10;strokeColor=#F59D56;fillColor=#F59D56;gradientColor=none;strokeWidth=2;" vertex="1" parent="1">
                    <mxGeometry x="126" y="-1205" width="76" height="76" as="geometry"/>
                </mxCell>
                <mxCell id="46" value="Instance" style="rounded=1;arcSize=10;strokeColor=#F59D56;fillColor=#F59D56;gradientColor=none;strokeWidth=2;" vertex="1" parent="1">
                    <mxGeometry x="126" y="-1099" width="76" height="76" as="geometry"/>
                </mxCell>
                <mxCell id="47" value="Instance" style="rounded=1;arcSize=10;strokeColor=#F59D56;fillColor=#F59D56;gradientColor=none;strokeWidth=2;" vertex="1" parent="1">
                    <mxGeometry x="126" y="-995" width="76" height="76" as="geometry"/>
                </mxCell>
            </root>
        </mxGraphModel>
    </diagram>
</mxfile>